<?xml version="1.0" encoding="UTF-8" standalone="no"?>
<!-- Created with Inkscape (http://www.inkscape.org/) -->

<svg
   version="1.1"
   id="svg9"
   width="188.18973"
   height="188.48581"
   viewBox="0 0 188.18973 188.48581"
   sodipodi:docname="canvasink.svg"
   inkscape:version="1.1.1 (3bf5ae0d25, 2021-09-20)"
   xmlns:inkscape="http://www.inkscape.org/namespaces/inkscape"
   xmlns:sodipodi="http://sodipodi.sourceforge.net/DTD/sodipodi-0.dtd"
   xmlns="http://www.w3.org/2000/svg"
   xmlns:svg="http://www.w3.org/2000/svg">
  <defs
     id="defs13" />
  <sodipodi:namedview
     id="namedview11"
     pagecolor="#ffffff"
     bordercolor="#666666"
     borderopacity="1.0"
     inkscape:pageshadow="2"
     inkscape:pageopacity="0.0"
     inkscape:pagecheckerboard="0"
     showgrid="false"
     inkscape:zoom="2.873884"
     inkscape:cx="233.30796"
     inkscape:cy="121.26446"
     inkscape:window-width="1920"
     inkscape:window-height="1001"
     inkscape:window-x="-9"
     inkscape:window-y="-9"
     inkscape:window-maximized="1"
     inkscape:current-layer="g15" />
  <g
     inkscape:groupmode="layer"
     inkscape:label="Image"
     id="g15"
     transform="translate(-19.915555,-39.649182)">
    <path
       style="fill:#e23d29;fill-opacity:1;stroke:#e23d29;stroke-width:1px;stroke-linecap:butt;stroke-linejoin:miter;stroke-opacity:1"
       d="m 23.681977,160.76799 c 27.660733,-2.94992 33.85214,-47.1901 0.08318,-53.14595 0,0 -7.487423,22.64182 -0.08318,53.14595 z"
       id="path17409-2"
       sodipodi:nodetypes="ccc" />
    <path
       style="fill:#e23d29;fill-opacity:1;stroke:#e23d29;stroke-width:1px;stroke-linecap:butt;stroke-linejoin:miter;stroke-opacity:1"
       d="M 68.242802,217.32636 C 86.352789,196.21128 60.522108,159.7654 31.85922,178.58705 c 0,0 10.076613,21.61425 36.383582,38.73931 z"
       id="path17409-1"
       sodipodi:nodetypes="ccc" />
    <path
       style="fill:#e23d29;fill-opacity:1;stroke:#e23d29;stroke-width:1px;stroke-linecap:butt;stroke-linejoin:miter;stroke-opacity:1"
       d="m 140.57667,225.1171 c -2.13804,-27.7353 -46.177764,-35.22056 -53.120696,-1.64064 0,0 22.412676,8.14774 53.120696,1.64064 z"
       id="path17409-6"
       sodipodi:nodetypes="ccc" />
    <path
       style="fill:#e23d29;fill-opacity:1;stroke:#e23d29;stroke-width:1px;stroke-linecap:butt;stroke-linejoin:miter;stroke-opacity:1"
       d="m 197.67968,179.11884 c -21.27414,-17.92287 -57.49056,8.22856 -38.4166,36.72416 0,0 21.52444,-10.26703 38.4166,-36.72416 z"
       id="path17409-43"
       sodipodi:nodetypes="ccc" />
    <path
       style="fill:#e23d29;fill-opacity:1;stroke:#e23d29;stroke-width:1px;stroke-linecap:butt;stroke-linejoin:miter;stroke-opacity:1"
       d="m 204.27193,107.33902 c -27.65342,3.01777 -33.73628,47.27301 0.0472,53.14599 0,0 7.43185,-22.66012 -0.0472,-53.14599 z"
       id="path17409-0"
       sodipodi:nodetypes="ccc" />
    <path
       style="fill:#e23d29;fill-opacity:1;stroke:#e23d29;stroke-width:1px;stroke-linecap:butt;stroke-linejoin:miter;stroke-opacity:1"
       d="m 159.24426,51.567713 c -17.53817,21.592374 9.25903,57.333627 37.40771,37.751318 0,0 -10.65168,-21.336714 -37.40771,-37.751318 z"
       id="path17409-4"
       sodipodi:nodetypes="ccc" />
    <ellipse
       style="fill:#e23d29;fill-opacity:1;fill-rule:evenodd;stroke-width:1.09672"
       id="path684-6"
       cx="149.88428"
       cy="97.690094"
       rx="8.7860184"
       ry="8.9599991" />
    <ellipse
       style="fill:#e23d29;fill-opacity:1;fill-rule:evenodd;stroke-width:1.09672"
       id="path684-7"
       cx="164.8466"
       cy="134.05203"
       rx="8.7860184"
       ry="8.9599991" />
    <ellipse
       style="fill:#e23d29;fill-opacity:1;fill-rule:evenodd;stroke-width:1.09672"
       id="path684-5"
       cx="150.05824"
       cy="170.41397"
       rx="8.7860184"
       ry="8.9599991" />
    <ellipse
       style="fill:#e23d29;fill-opacity:1;fill-rule:evenodd;stroke-width:1.09672"
       id="path684-2"
       cx="113.95728"
       cy="185.02834"
       rx="8.7860184"
       ry="8.9599991" />
    <ellipse
       style="fill:#e23d29;fill-opacity:1;fill-rule:evenodd;stroke-width:1.09672"
       id="path684-3"
       cx="78.030289"
       cy="169.89203"
       rx="8.7860184"
       ry="8.9599991" />
    <ellipse
       style="fill:#e23d29;fill-opacity:1;fill-rule:evenodd;stroke-width:1.09672"
       id="path684-38"
       cx="62.980968"
       cy="133.70407"
       rx="8.7860184"
       ry="8.9599991" />
    <ellipse
       style="fill:#e23d29;fill-opacity:1;fill-rule:evenodd;stroke-width:1.09672"
       id="path684-8"
       cx="77.856308"
       cy="97.951065"
       rx="8.7860184"
       ry="8.9599991" />
    <ellipse
       style="fill:#e23d29;fill-opacity:1;fill-rule:evenodd;stroke-width:1.09672"
       id="path684"
       cx="113.87029"
       cy="83.336693"
       rx="8.7860184"
       ry="8.9599991" />
    <path
       style="fill:#e23d29;fill-opacity:1;stroke:#e23d29;stroke-width:1px;stroke-linecap:butt;stroke-linejoin:miter;stroke-opacity:1"
       d="m 31.055533,89.078056 c 21.631894,17.489404 57.312575,-9.388391 37.666796,-37.492814 0,0 -21.312621,10.699805 -37.666796,37.492814 z"
       id="path17409"
       sodipodi:nodetypes="ccc" />
    <path
       style="fill:#e23d29;fill-opacity:1;stroke:#e23d29;stroke-width:1px;stroke-linecap:butt;stroke-linejoin:miter;stroke-opacity:1"
       d="m 87.501303,43.456643 c 2.991576,27.656256 47.241027,33.781041 53.146017,0.0031 0,0 -22.65308,-7.453317 -53.146017,-0.0031 z"
       id="path17409-9"
       sodipodi:nodetypes="ccc" />
  </g>
  <g
     inkscape:groupmode="layer"
     id="layer1"
     inkscape:label="Image 1"
     transform="translate(-19.915555,-39.649182)" />
</svg>
